<?xml version="1.0" standalone="no"?>
<!DOCTYPE svg PUBLIC "-//W3C//DTD SVG 20010904//EN"
 "http://www.w3.org/TR/2001/REC-SVG-20010904/DTD/svg10.dtd">
<svg version="1.0" xmlns="http://www.w3.org/2000/svg"
 width="300.000000pt" height="300.000000pt" viewBox="0 0 300.000000 300.000000"
 preserveAspectRatio="xMidYMid meet">
<metadata>
Created by potrace 1.11, written by Peter Selinger 2001-2013
</metadata>
<g transform="translate(0.000000,300.000000) scale(0.100000,-0.100000)"
fill="#000000" stroke="none">
<path d="M1771 2415 c-7 -8 -87 -228 -95 -260 -2 -5 -6 -17 -9 -25 -3 -8 -21
-60 -41 -115 -19 -55 -111 -318 -204 -585 -290 -827 -310 -885 -307 -888 5 -5
125 -6 128 -1 3 3 201 566 412 1174 35 99 104 297 154 439 50 142 89 261 87
264 -10 9 -118 7 -125 -3z"/>
<path d="M595 1684 c-226 -91 -418 -168 -427 -171 -15 -4 -18 -17 -18 -72 l0
-67 48 -21 c95 -42 807 -323 817 -323 6 0 10 26 10 59 l0 59 -362 144 c-199
78 -359 146 -355 149 4 4 79 35 167 69 88 34 174 68 190 75 17 7 102 41 190
75 88 35 161 64 163 65 8 6 6 125 -2 125 -6 -1 -195 -75 -421 -166z"/>
<path d="M1970 1788 l0 -64 38 -13 c20 -7 51 -19 67 -26 17 -7 158 -64 315
-125 157 -62 288 -115 293 -119 4 -4 -111 -54 -255 -110 -145 -57 -276 -109
-293 -116 -16 -7 -59 -24 -95 -38 l-65 -25 -3 -65 -3 -65 428 170 c235 94 432
174 436 178 9 8 14 127 6 134 -5 5 -830 338 -851 344 -16 4 -18 -4 -18 -60z"/>
</g>
</svg>
